<?xml version="1.0" standalone="no"?>
<!DOCTYPE svg PUBLIC "-//W3C//DTD SVG 1.1//EN" "http://www.w3.org/Graphics/SVG/1.1/DTD/svg11.dtd" >
<svg viewBox="0 -39 519 512">
  <g transform="matrix(1 0 0 -1 0 480)">
   <path fill="currentColor"
d="M388 199h-45q-17 0 -21 9t9 22l31 31q1 1 0 2l-30 30l-6.5 6.5l-6.5 6.5l-5.5 5.5l-4.5 4.5l-3.5 3.5l-2.5 2.5l-1 1q-1 1 -2 0l-31 -31q-13 -13 -22 -9.5t-9 21.5v45q0 1 -1 1h-42h-43q-1 0 -1 -1v-45q0 -18 -9 -21.5t-22 9.5l-31 31t-2 0l-30 -30q-7 -6 -14.5 -14
t-11.5 -12l-4 -4q-1 -1 0 -2l31 -31q13 -13 9.5 -22t-21.5 -9h-45q-1 0 -1 -1v-43v-42q0 -1 1 -1h45q18 0 21.5 -9t-9.5 -22l-31 -31q-1 -1 0 -2l30 -30l30 -30q1 -1 2 0l31 31q13 13 22 9t9 -21v-45q0 -1 1 -1h43h42q1 0 1 1v45q0 17 9 21t22 -9l31 -31q1 -1 2 0l2 1.5
t4.5 4.5t6 6.5t8.5 8t9 9.5l30 30q1 1 0 2l-4 4l-12 12l-15 15q-13 13 -9 22t21 9h45q1 0 1 1v42v43q0 1 -1 1zM197.5 91q-27.5 0 -46.5 19.5t-19 46.5t19 46t46.5 19t46.5 -19t19 -46t-19 -46.5t-46.5 -19.5zM519 405h-23q-9 0 -10.5 4.5t4.5 10.5l7.5 7.5t6.5 6t2 2.5v1
l-15 15q-4 3 -7.5 7t-5.5 5.5t-2 2.5h-1q0 -1 -16 -16q-6 -6 -10.5 -4.5t-4.5 10.5v22q0 1 -1 1h-21h-21q-1 0 -1 -1v-22q0 -9 -4.5 -10.5t-10.5 4.5q-4 3 -8 7l-6 6t-2 3h-1q0 -1 -15 -15q-13 -14 -15 -15v-1q0 -1 16 -16q6 -6 4.5 -10.5t-10.5 -4.5h-23v-1v-21v-21v-1h1.5
h3.5h4.5h6h7.5q9 0 10.5 -4.5t-4.5 -10.5l-16 -16v-1l15 -15l15 -15h1l16 16q6 6 10.5 4t4.5 -11v-10v-9v-3h1h21h21h1v22q0 9 4.5 11t10.5 -4l16 -16l0.5 0.5t15.5 14.5l15 15v1q-8 7 -16 16q-6 6 -4.5 10.5t10.5 4.5h23v1v21v21v1zM446.5 359.5q-9.5 -9.5 -23 -9.5
t-23 9.5t-9.5 23t9.5 23t23 9.5t23 -9.5t9.5 -23t-9.5 -23z" />
  </g>

</svg>
