<?xml version="1.0" encoding="utf-8"?>
<!-- Generator: Adobe Illustrator 16.0.0, SVG Export Plug-In . SVG Version: 6.00 Build 0)  -->
<!DOCTYPE svg PUBLIC "-//W3C//DTD SVG 1.1//EN" "http://www.w3.org/Graphics/SVG/1.1/DTD/svg11.dtd">
<svg version="1.1" id="Layer_1" xmlns="http://www.w3.org/2000/svg" xmlns:xlink="http://www.w3.org/1999/xlink" x="0px" y="0px"
	 width="90px" height="90px" viewBox="-4.698 0 90 90" enable-background="new -4.698 0 90 90" xml:space="preserve">
<g>
	<path d="M44.929,88.625c-5.545,0-10.735-0.99-15.438-2.943c-4.699-1.953-9.088-4.949-13.038-8.898
		c-3.948-3.948-6.939-8.334-8.896-13.04c-1.955-4.699-2.945-9.896-2.945-15.435c0-5.924,1.208-11.548,3.59-16.708
		c2.398-5.195,5.754-9.738,9.972-13.499c0.562-0.517,1.071-0.728,1.696-0.728c0.067,0,0.137,0.003,0.207,0.006
		c0.766,0.048,1.303,0.31,1.799,0.879c0.502,0.57,0.703,1.168,0.655,1.939c-0.046,0.726-0.274,1.197-0.792,1.625l-0.111,0.097
		C13.692,28.977,9.671,37.854,9.671,48.309c0.146,9.613,3.644,17.912,10.391,24.732c6.783,6.855,15.148,10.333,24.868,10.333
		c9.579,0,17.903-3.467,24.752-10.315c6.844-6.842,10.312-15.17,10.312-24.75c0-10.447-3.951-19.251-11.744-26.175
		c-0.547-0.505-0.799-1.045-0.822-1.787c-0.024-0.787,0.187-1.378,0.677-1.917c0.498-0.547,1.047-0.809,1.778-0.857
		c0.074-0.005,0.152-0.006,0.229-0.006c0.619,0,1.147,0.195,1.664,0.617c4.151,3.714,7.488,8.241,9.875,13.417
		c2.387,5.161,3.594,10.784,3.594,16.708c0,5.539-0.992,10.734-2.943,15.437c-1.957,4.703-4.948,9.09-8.896,13.038
		c-3.949,3.949-8.336,6.941-13.041,8.898C55.663,87.634,50.472,88.625,44.929,88.625z M45.024,50.836
		c-0.735,0-1.317-0.242-1.891-0.789c-0.521-0.502-0.734-1.004-0.734-1.738V1.124c0-0.734,0.213-1.238,0.734-1.739
		c0.571-0.546,1.154-0.789,1.891-0.789c0.733,0,1.315,0.243,1.887,0.79c0.523,0.5,0.736,1.004,0.736,1.738v47.187
		c0,0.733-0.213,1.237-0.736,1.737C46.341,50.594,45.759,50.836,45.024,50.836z"/>
</g>
</svg>
