<?xml version="1.0" encoding="iso-8859-1"?>
<!-- Generator: Adobe Illustrator 16.0.0, SVG Export Plug-In . SVG Version: 6.00 Build 0)  -->
<!DOCTYPE svg PUBLIC "-//W3C//DTD SVG 1.1//EN" "http://www.w3.org/Graphics/SVG/1.1/DTD/svg11.dtd">
<svg version="1.1" id="Layer_1" xmlns="http://www.w3.org/2000/svg" xmlns:xlink="http://www.w3.org/1999/xlink" x="0px" y="0px"
	 width="72px" height="72px" viewBox="0 0 71.972 68.774" style="enable-background:new 0 0 71.972 68.774;"
	 xml:space="preserve">
<g>
	<path d="M67.454,19.949L52.785,0H19.187L4.518,19.949H0v13.575h71.972V19.949H67.454z M7.662,29.519H4.371v-5.46h3.291V29.519z
		 M13.622,29.519h-3.291v-5.46h3.291V29.519z M19.583,29.519h-3.29v-5.46h3.29V29.519z M67.565,28.512h-21.21v-3.535h21.21V28.512z"
		/>
	<path d="M4.518,37.574H0v13.575h71.972V37.574h-4.518H4.518z M7.662,47.144H4.371v-5.46h3.291V47.144z M13.622,47.144h-3.291v-5.46
		h3.291V47.144z M19.583,47.144h-3.29v-5.46h3.29V47.144z M67.565,46.137h-21.21v-3.535h21.21V46.137z"/>
	<path d="M4.518,55.199H0v13.575h71.972V55.199h-4.518H4.518z M7.662,64.769H4.371v-5.46h3.291V64.769z M13.622,64.769h-3.291v-5.46
		h3.291V64.769z M19.583,64.769h-3.29v-5.46h3.29V64.769z M67.565,63.762h-21.21v-3.535h21.21V63.762z"/>
</g>
</svg>
