<?xml version="1.0" encoding="iso-8859-1"?>
<!-- Generator: Adobe Illustrator 16.0.0, SVG Export Plug-In . SVG Version: 6.00 Build 0)  -->
<!DOCTYPE svg PUBLIC "-//W3C//DTD SVG 1.1//EN" "http://www.w3.org/Graphics/SVG/1.1/DTD/svg11.dtd">
<svg version="1.1" id="Layer_1" xmlns="http://www.w3.org/2000/svg" xmlns:xlink="http://www.w3.org/1999/xlink" x="0px" y="0px"
	 width="90px" height="89.996px" viewBox="0 0 90 89.996" style="enable-background:new 0 0 90 89.996;" xml:space="preserve">
<g id="interface_-_meter_dashboard">
	<g>
		<path style="fill:#22B35E;" d="M57.656,39.716c-1.345-0.804-3.065-0.327-3.842,1.066l-10.26,18.398
			c-0.446-0.072-0.9-0.12-1.367-0.12c-4.66,0-8.438,3.776-8.438,8.438c0,4.659,3.777,8.437,8.438,8.437s8.438-3.777,8.438-8.437
			c0-2.137-0.801-4.082-2.109-5.568l10.17-18.236C59.463,42.302,59.002,40.521,57.656,39.716z M45,70.311h-5.625v-5.624H45V70.311z
			 M45,16.875c-15.533,0-28.125,12.591-28.125,28.123H22.5c0-12.426,10.073-22.501,22.5-22.501c12.426,0,22.5,10.075,22.5,22.501
			h5.625C73.125,29.466,60.533,16.875,45,16.875z M45,0C20.146,0,0,20.146,0,44.998c0,24.854,20.146,44.998,45,44.998
			c24.853,0,45-20.145,45-44.998C90,20.146,69.853,0,45,0z M45,84.372c-21.747,0-39.375-17.626-39.375-39.374
			C5.625,23.252,23.253,5.624,45,5.624c21.746,0,39.375,17.628,39.375,39.374C84.375,66.746,66.746,84.372,45,84.372z"/>
	</g>
</g>
</svg>
