<?xml version="1.0" standalone="no"?>
<!DOCTYPE svg PUBLIC "-//W3C//DTD SVG 1.1//EN" "http://www.w3.org/Graphics/SVG/1.1/DTD/svg11.dtd" >
<svg viewBox="0 -256 1792 1792">
  <g transform="matrix(1 0 0 -1 0 1536)">
   <path fill="currentColor"
d="M1792 826v-794c0 -88 -72 -160 -160 -160h-1472c-88 0 -160 72 -160 160v794c30 -33 64 -62 101 -87c166 -113 334 -226 497 -345c84 -62 188 -138 297 -138h1h1c109 0 213 76 297 138c163 118 331 232 498 345c36 25 70 54 100 87zM1792 1120c0 -112 -83 -213 -171 -274
c-156 -108 -313 -216 -468 -325c-65 -45 -175 -137 -256 -137h-1h-1c-81 0 -191 92 -256 137c-155 109 -312 217 -467 325c-71 48 -172 161 -172 252c0 98 53 182 160 182h1472c87 0 160 -72 160 -160z" />
  </g>

</svg>
