<?xml version="1.0" encoding="utf-8"?>
<!-- Generator: Adobe Illustrator 16.0.0, SVG Export Plug-In . SVG Version: 6.00 Build 0)  -->
<!DOCTYPE svg PUBLIC "-//W3C//DTD SVG 1.1//EN" "http://www.w3.org/Graphics/SVG/1.1/DTD/svg11.dtd">
<svg version="1.1" id="Layer_1" xmlns="http://www.w3.org/2000/svg" xmlns:xlink="http://www.w3.org/1999/xlink" x="0px" y="0px"
	 width="25px" height="24px" viewBox="0 0 25 24" enable-background="new 0 0 25 24" xml:space="preserve">
<g id="icon">
	<g>
		<path d="M13.194,20.471h8.334v-2.117h-8.334V20.471z M10.511,18.383c-0.495-0.183-0.958-0.39-1.192-0.449
			c-0.234-0.059-0.33-0.184-0.412-0.401c-0.03-0.079-0.07-0.122-0.11-0.15c0.015-0.163,0.081-0.293,0.172-0.432
			c0.109-0.167,0.398-0.851,0.508-2.208C9.585,13.389,9.127,12,7.887,12H7.876l-0.001,0.001C7.81,11.999,7.633,12,7.604,12
			c0.007,0,0.035,0,0.035,0v0.001c-1.389,0.007-1.724,1.386-1.614,2.741c0.109,1.358,0.387,2.041,0.496,2.208
			c0.093,0.14,0.153,0.271,0.167,0.437c-0.038,0.029-0.079,0.07-0.107,0.146c-0.083,0.218-0.179,0.343-0.414,0.401
			c-0.234,0.06-0.697,0.267-1.192,0.449c-0.494,0.184-1.192,0.426-1.192,0.704c0,0.158-0.012,0.31-0.023,0.566
			c0.062,0.215,0.23,0.112,0.489,0.112h6.988c0.258,0,0.426,0.103,0.488-0.111c-0.011-0.255-0.023-0.496-0.023-0.654
			C11.703,18.723,11.006,18.566,10.511,18.383z M12.5,3.856c-0.424,0-0.769,0.353-0.769,0.789c0,0.436,0.344,0.789,0.769,0.789
			c0.425,0,0.77-0.354,0.77-0.789C13.27,4.208,12.925,3.856,12.5,3.856z M13.194,16.941h8.334v-1.412h-8.334V16.941z M22.024,5.647
			h-6.052V3.856C15.973,1.73,14.579,0,12.5,0c-2.078,0-3.472,1.73-3.472,3.856v1.792H2.977C1.335,5.647,0,7.066,0,8.743v12.216
			C0,22.637,1.335,24,2.977,24h19.048C23.665,24,25,22.637,25,20.959V8.743C25,7.066,23.665,5.647,22.024,5.647z M10.417,3.856
			c0-1.35,0.769-2.444,2.083-2.444c1.315,0,2.084,1.094,2.084,2.444v4.615h-4.167V3.856z M23.611,20.959
			c0,0.9-0.711,1.629-1.587,1.629H2.977c-0.877,0-1.587-0.729-1.587-1.629V8.743c0-0.9,0.71-1.684,1.587-1.684h5.357v3.529h8.333
			V7.059h5.357c0.876,0,1.587,0.784,1.587,1.684V20.959z M13.194,13.412h8.334V12h-8.334V13.412z"/>
	</g>
</g>
</svg>
